PathFileType  4	(X/Y/Z) C:\Users\antoi\Documents\MyRepositories\mobilecap\ResultsAnalysis
DataRate	CameraRate	NumFrames	NumMarkers	Units	OrigDataRate	OrigDataStartFrame	OrigNumFrames
100.0	100.0	6	51	mm	100.0	82	163
Frame#	Time	r_knee			r_shank_antsup			r_ankle			r_calc			r_5meta			r_toe			L_knee			L_shank_antsup			L_ankle			L_calc			L_5meta			L_toe			r_sh2			r_sh3			r_sh4			L_sh2			L_sh3			r_thigh1			r_thigh2			r_thigh3			r_thigh4			r_thigh5			L_thigh1			L_thigh2			L_thigh3			L_thigh4			r.ASIS			r.PSIS			L.ASIS			L.PSIS			C7			R_Shoulder			L_Shoulder			R_Sternum			L_Sternum			R_humerus			R_elbow_med			R_elbow_lat			R_forearm			R_wrist_radius			R_wrist_ulna			L_humerus			L_elbow_med			L_elbow_lat			L_forearm			L_wrist_radius			L_wrist_ulna			R_HJC			L_HJC			R_HJC_reg			L_HJC_reg			
		X1	Y1	Z1	X2	Y2	Z2	X3	Y3	Z3	X4	Y4	Z4	X5	Y5	Z5	X6	Y6	Z6	X7	Y7	Z7	X8	Y8	Z8	X9	Y9	Z9	X10	Y10	Z10	X11	Y11	Z11	X12	Y12	Z12	X13	Y13	Z13	X14	Y14	Z14	X15	Y15	Z15	X16	Y16	Z16	X17	Y17	Z17	X18	Y18	Z18	X19	Y19	Z19	X20	Y20	Z20	X21	Y21	Z21	X22	Y22	Z22	X23	Y23	Z23	X24	Y24	Z24	X25	Y25	Z25	X26	Y26	Z26	X27	Y27	Z27	X28	Y28	Z28	X29	Y29	Z29	X30	Y30	Z30	X31	Y31	Z31	X32	Y32	Z32	X33	Y33	Z33	X34	Y34	Z34	X35	Y35	Z35	X36	Y36	Z36	X37	Y37	Z37	X38	Y38	Z38	X39	Y39	Z39	X40	Y40	Z40	X41	Y41	Z41	X42	Y42	Z42	X43	Y43	Z43	X44	Y44	Z44	X45	Y45	Z45	X46	Y46	Z46	X47	Y47	Z47	X48	Y48	Z48	X49	Y49	Z49	X50	Y50	Z50	X51	Y51	Z51	

82	0.81000000	642.80469	538.75704	-145.03742	588.61696	419.36016	-156.73384	300.28695	241.43022	-200.66942	249.68166	271.38036	-263.11003	301.90258	85.08823	-153.93354	361.48996	72.75679	-211.95254	820.19044	538.37298	-508.01336	877.97488	441.83710	-492.24973	829.58310	92.50596	-484.46018	772.55505	66.06007	-428.41067	968.72126	35.52939	-525.50875	1007.22842	58.65680	-459.85677	516.55135	333.25546	-181.93634	528.57200	457.20356	-125.52872	454.52607	366.61270	-134.02576	796.65653	430.10483	-531.58769	833.99131	315.57410	-542.72241	786.78586	748.69621	-156.86835	771.91121	637.43328	-164.53398	726.36242	617.88740	-118.59803	686.68349	755.62186	-101.19468	673.65249	639.78568	-116.47377	847.34365	799.38923	-527.32050	881.41990	665.51245	-514.98361	742.80614	767.70152	-551.19490	776.20019	634.44329	-529.57220	796.04277	1032.93421	-185.38364	602.90210	1085.27863	-285.15851	821.93735	1027.70418	-449.61105	608.00483	1082.54567	-382.89974	707.75168	1562.01797	-456.33796	776.53833	1535.06182	-257.61961	767.44770	1447.13161	-608.32144	834.73502	1471.91275	-408.30646	830.52330	1457.14004	-454.28112	781.37828	1385.83873	-148.19386	676.37840	1172.44895	-128.00428	722.47936	1203.20192	-64.77068	817.81324	1055.28069	-74.87405	856.25622	939.35117	-66.30105	837.08345	932.78870	-28.34303	752.95920	1262.73846	-659.20460	655.70549	1071.12820	-582.53055	682.58413	1072.91871	-660.96562	764.61358	929.31766	-638.18222	778.48715	809.28274	-650.07032	742.24222	808.39185	-682.94051	710.96696	960.44024	-226.05537	730.23677	945.94497	-438.05030	721.51494	961.85640	-225.04417	730.64871	956.96328	-400.02053	
83	0.82000000	662.09903	538.60856	-143.69596	607.02285	420.31053	-155.70362	315.60832	248.51683	-201.24792	268.70417	281.36948	-264.64592	309.23872	92.57990	-155.14066	369.46373	77.05184	-211.41552	825.53111	538.65604	-507.64975	882.21937	441.54634	-491.51286	830.09032	92.84830	-483.75550	772.84205	66.41658	-428.19370	968.82611	35.64994	-525.38895	1007.64505	58.27778	-459.65288	533.63613	335.45379	-181.25437	547.55387	459.16648	-124.72441	471.99866	369.88452	-133.88336	801.05539	430.60475	-531.27827	837.32566	315.75458	-542.24818	801.43260	751.27893	-155.60156	789.00406	639.56923	-162.60724	743.59759	619.34465	-116.88278	700.78895	756.38218	-100.72885	690.31959	640.13394	-115.50059	856.56597	799.10098	-526.79560	888.38611	664.60176	-514.35928	751.77575	769.07698	-551.11318	783.00842	635.31798	-529.24221	805.04893	1035.10630	-185.32680	613.05910	1087.01818	-287.52259	834.07078	1028.50027	-449.03698	619.21036	1084.38788	-385.06065	718.38925	1561.77786	-463.70731	785.61889	1538.96760	-263.93179	779.62492	1444.08252	-612.78249	845.41190	1472.75666	-412.63701	841.46701	1457.47678	-458.48410	789.44594	1391.56950	-151.89105	683.27693	1178.97866	-129.13127	729.90454	1210.13792	-66.38583	824.02780	1061.33361	-75.04090	861.64089	945.10075	-65.27309	842.71385	939.16206	-27.13615	767.89253	1259.31546	-661.61817	672.39689	1066.99052	-584.13530	699.95643	1068.40255	-662.28980	784.10010	926.42759	-637.46772	799.95246	806.55320	-648.06379	764.03829	804.66966	-681.12212	720.27110	962.49800	-226.58069	741.97902	947.06691	-438.27290	731.23196	963.10309	-225.79209	742.26406	958.39086	-400.55809	
84	0.83000000	681.27977	538.85493	-142.37671	625.57155	421.52848	-154.64488	331.41356	255.26720	-202.13132	288.07201	290.22646	-266.74594	317.96921	99.96153	-156.29046	379.03322	81.67321	-210.54187	830.66165	539.03078	-507.47706	886.18771	441.36047	-490.83078	830.54221	93.17376	-483.27676	773.08553	66.79536	-428.12275	968.92017	35.70714	-525.30321	1007.95412	57.96975	-459.50635	551.11147	337.85340	-180.57014	566.59947	461.32630	-123.93784	489.72174	373.25777	-133.75458	805.24823	431.17189	-531.17749	840.52766	316.02224	-541.96515	815.93774	754.09373	-154.26977	805.88420	642.01657	-160.71344	760.64685	621.09303	-115.20007	714.77196	757.36409	-100.23461	706.82612	640.76421	-114.59654	865.69855	798.99698	-526.05826	895.39229	663.97148	-513.60920	760.74815	770.58505	-551.14477	789.84720	636.33075	-529.17498	813.84537	1037.28749	-185.04842	623.02628	1088.63497	-289.80500	845.85437	1029.26240	-448.40659	630.21969	1086.13895	-387.07580	728.91644	1561.43832	-470.86233	794.48926	1542.67109	-270.08088	791.66853	1441.03682	-617.02252	855.95806	1473.51673	-416.73164	852.43316	1457.77686	-462.38394	797.22273	1397.10527	-155.47817	690.05252	1185.27195	-130.24318	737.08400	1216.89191	-67.95727	830.25459	1067.36858	-75.10654	867.13458	950.89046	-64.12799	848.41801	945.53864	-25.84479	782.75760	1256.01024	-663.72725	689.16872	1062.84415	-585.62263	717.33358	1063.99117	-663.44100	803.60913	923.73379	-636.64443	821.57763	804.11869	-645.97817	785.94064	801.18181	-679.19088	729.38329	964.51943	-226.97423	753.48938	948.11507	-438.34170	740.73717	964.19048	-226.36478	753.67403	959.71089	-401.01806	
85	0.84000000	700.24938	539.54432	-141.08381	644.15713	423.05497	-153.55549	347.60805	261.65738	-203.37808	307.38838	297.76231	-269.39381	328.49417	107.13593	-157.21327	390.57093	86.62188	-209.30430	835.59087	539.48762	-507.46754	889.87881	441.26911	-490.29866	830.95990	93.49545	-482.99035	773.28663	67.20761	-428.17193	969.00235	35.70631	-525.25873	1008.16840	57.70291	-459.41768	568.82814	340.47805	-179.90407	585.57222	463.74008	-123.20220	507.56933	376.75942	-133.65774	809.16152	431.79476	-531.23727	843.49524	316.36225	-541.86810	830.23804	757.14512	-152.87799	822.49290	644.77322	-158.84916	777.43883	623.15323	-113.53297	728.60571	758.60889	-99.72929	723.11585	641.71999	-113.73161	874.72789	799.02601	-525.19227	902.44167	663.58752	-512.78490	769.71342	772.19669	-551.32107	796.69510	637.45603	-529.37444	822.50499	1039.45214	-184.59895	632.83080	1090.16103	-291.93193	857.16538	1030.05136	-447.79124	641.04502	1087.80968	-388.90670	739.34756	1561.01350	-477.76707	803.18213	1546.17921	-276.05482	803.58119	1438.02012	-621.03418	866.37035	1474.20147	-420.58839	863.39797	1458.04330	-465.97524	804.73028	1402.44268	-158.95167	696.73997	1191.31640	-131.38834	744.00028	1223.45397	-69.50264	836.47156	1073.37015	-75.06284	872.75135	956.72884	-62.84465	854.18843	951.92421	-24.45781	797.50542	1252.81716	-665.59757	706.01816	1058.72470	-586.96387	734.71156	1059.71267	-664.40101	823.13508	921.26842	-635.71433	843.30538	801.99702	-643.82445	807.91194	797.97240	-677.14926	738.35098	966.50023	-227.26291	764.69213	949.13470	-438.29937	750.00928	965.18089	-226.79511	764.82743	960.94930	-401.43184	
86	0.85000000	718.93979	540.68940	-139.82640	662.68974	424.93229	-152.43595	364.16737	267.62976	-204.99345	326.37190	303.88142	-272.46619	341.20747	113.99496	-157.74620	404.37104	91.83079	-207.74332	840.30773	540.00765	-507.55433	893.28596	441.25270	-489.97688	831.34613	93.82458	-482.84103	773.44438	67.64836	-428.29818	969.07152	35.66381	-525.25191	1008.31131	57.46252	-459.38042	586.65358	343.33091	-179.26379	604.35008	466.46044	-122.59289	525.42981	380.41745	-133.64731	812.72369	432.45394	-531.38476	846.14148	316.75480	-541.91894	844.28333	760.43070	-151.43140	838.79535	647.82988	-156.99658	793.92578	625.52853	-111.85682	742.26461	760.13752	-99.22371	739.15422	643.02072	-112.86024	883.62814	799.11304	-524.27319	909.46954	663.36633	-511.92990	778.62135	773.85972	-551.63965	803.50633	638.64809	-529.80006	831.10178	1041.59022	-184.04209	642.50456	1091.63748	-293.86426	867.95665	1030.88739	-447.19127	651.69725	1089.41498	-390.55104	749.69932	1560.51897	-484.39027	811.73004	1549.50391	-281.84122	815.36223	1435.06533	-624.80947	876.64677	1474.83298	-424.21202	874.30018	1458.28729	-469.27889	811.99567	1407.58816	-162.31280	703.36911	1197.10752	-132.61383	750.64578	1229.82090	-71.04105	842.65949	1079.32822	-74.90263	878.49192	962.61969	-61.40559	860.00830	958.32074	-22.96391	812.07919	1249.73449	-667.29498	722.92010	1054.68403	-588.12561	752.07576	1055.60040	-665.15889	842.66497	919.06253	-634.67854	865.08615	800.20907	-641.61453	829.91777	795.08351	-674.99960	747.21119	968.45215	-227.45665	775.55500	950.14534	-438.16527	759.06725	966.15448	-227.10283	775.69634	962.14181	-401.77006	
87	0.86000000	737.31774	542.26799	-138.61896	681.10369	427.18504	-151.28523	381.13695	273.06819	-206.91246	344.91405	308.56968	-275.75792	356.36418	120.38938	-157.79111	420.56269	97.14096	-205.96461	844.80165	540.57488	-507.65032	896.41362	441.29011	-489.86719	831.69228	94.17193	-482.76867	773.56182	68.09571	-428.45168	969.12729	35.60123	-525.27084	1008.41095	57.24370	-459.38003	604.50520	346.38047	-178.63799	622.84314	469.51155	-122.20914	543.22125	384.23585	-133.78769	815.90313	433.13149	-531.54466	848.43172	317.18225	-542.05732	858.04300	763.94215	-149.93810	854.77933	651.17360	-155.13268	810.08627	628.20521	-110.15013	755.72108	761.94570	-98.71600	754.92731	644.65865	-111.93973	892.37030	799.18621	-523.35576	916.37703	663.20770	-511.07343	787.40039	775.51320	-552.06492	810.22728	639.85132	-530.37849	839.69405	1043.70763	-183.45324	652.07782	1093.10340	-295.59784	878.27624	1031.75570	-446.56044	662.18246	1090.96480	-392.03446	759.98847	1559.97141	-490.71319	820.16329	1552.65856	-287.42749	827.00741	1432.20944	-628.34268	886.78590	1475.44218	-427.61697	885.05495	1458.52238	-472.34348	819.05028	1412.55528	-165.56479	709.96042	1202.64719	-133.95655	757.02557	1235.99348	-72.59060	848.81248	1085.23880	-74.62055	884.34420	968.55848	-59.79962	865.85049	964.72244	-21.35436	826.43392	1246.77491	-668.85997	739.83299	1050.78759	-589.07415	769.40392	1051.69094	-665.71022	862.18131	917.14594	-633.53665	886.88072	798.77904	-639.35550	851.92694	792.55295	-672.74433	755.99352	970.39543	-227.55648	786.09751	951.14350	-437.94268	767.96891	967.19672	-227.29998	786.28278	963.32446	-401.96802	
